<mxfile host="Electron" modified="2024-07-01T14:17:55.004Z" agent="Mozilla/5.0 (Windows NT 10.0; Win64; x64) AppleWebKit/537.36 (KHTML, like Gecko) draw.io/23.1.5 Chrome/120.0.6099.109 Electron/28.1.0 Safari/537.36" etag="D82ZXQMbvVxjep7LgbU0" version="23.1.5" type="device">
  <diagram id="On8ayFyFd468146MbjWC" name="Page-1">
    <mxGraphModel dx="1185" dy="683" grid="1" gridSize="10" guides="1" tooltips="1" connect="1" arrows="1" fold="1" page="1" pageScale="1" pageWidth="850" pageHeight="1100" math="0" shadow="0">
      <root>
        <mxCell id="0" />
        <mxCell id="1" parent="0" />
        <mxCell id="MuzQpw8NMpw8KzPdXfo7-5" value="Kafka Broker" style="shape=parallelogram;perimeter=parallelogramPerimeter;whiteSpace=wrap;html=1;fixedSize=1;fillColor=#ffe6cc;strokeColor=#d79b00;" parent="1" vertex="1">
          <mxGeometry x="640" y="275" width="120" height="60" as="geometry" />
        </mxCell>
        <mxCell id="MuzQpw8NMpw8KzPdXfo7-7" style="edgeStyle=orthogonalEdgeStyle;rounded=0;orthogonalLoop=1;jettySize=auto;html=1;exitX=1;exitY=0.5;exitDx=0;exitDy=0;entryX=0;entryY=0.5;entryDx=0;entryDy=0;" parent="1" source="q1xVCknqz3PkAjE2f227-1" target="MuzQpw8NMpw8KzPdXfo7-5" edge="1">
          <mxGeometry relative="1" as="geometry" />
        </mxCell>
        <mxCell id="q1xVCknqz3PkAjE2f227-1" value="Intergrated ADS" style="rounded=1;whiteSpace=wrap;html=1;fillColor=none;strokeColor=#82b366;verticalAlign=top;labelPosition=center;verticalLabelPosition=middle;align=left;spacingLeft=8;" parent="1" vertex="1">
          <mxGeometry x="120" y="240" width="440" height="130" as="geometry" />
        </mxCell>
        <mxCell id="MuzQpw8NMpw8KzPdXfo7-1" value="ADS" style="rounded=1;whiteSpace=wrap;html=1;fillColor=#d5e8d4;strokeColor=#82b366;" parent="1" vertex="1">
          <mxGeometry x="140" y="280" width="90" height="60" as="geometry" />
        </mxCell>
        <mxCell id="MuzQpw8NMpw8KzPdXfo7-2" value="Bridge Service" style="rounded=1;whiteSpace=wrap;html=1;fillColor=none;strokeColor=#82b366;verticalAlign=top;align=left;" parent="1" vertex="1">
          <mxGeometry x="250" y="260" width="290" height="90" as="geometry" />
        </mxCell>
        <mxCell id="MuzQpw8NMpw8KzPdXfo7-3" value="StreamAPI Client" style="rounded=1;whiteSpace=wrap;html=1;fillColor=#d5e8d4;strokeColor=#82b366;" parent="1" vertex="1">
          <mxGeometry x="335" y="280" width="90" height="60" as="geometry" />
        </mxCell>
        <mxCell id="MuzQpw8NMpw8KzPdXfo7-4" value="StreamAPI Server" style="rounded=1;whiteSpace=wrap;html=1;fillColor=#d5e8d4;strokeColor=#82b366;" parent="1" vertex="1">
          <mxGeometry x="440" y="280" width="90" height="60" as="geometry" />
        </mxCell>
      </root>
    </mxGraphModel>
  </diagram>
</mxfile>
